<svg width="645" height="797" viewBox="0 0 645 797" fill="none" xmlns="http://www.w3.org/2000/svg">
<path fill-rule="evenodd" clip-rule="evenodd" d="M872.95 337.805C836.732 419.41 716.401 399.793 632.857 431.28C559.407 458.962 492.256 539.027 419.923 508.544C347.806 478.151 355.813 375.444 327.369 302.537C301.66 236.638 250.433 177.983 263.866 108.534C279.208 29.2107 327.29 -47.4302 401.317 -79.7954C474.745 -111.899 558.234 -85.7305 630.899 -51.9363C697.375 -21.0203 742.581 34.6241 781.26 96.9041C828.384 172.781 909.184 256.165 872.95 337.805Z" fill="url(#paint0_linear_99_769)"/>
<path fill-rule="evenodd" clip-rule="evenodd" d="M983.518 357.791C923.863 424.216 815.477 368.386 726.293 372.523C647.883 376.161 559.283 431.565 499.905 380.228C440.705 329.043 480.049 233.834 475.519 155.705C471.425 85.0874 440.824 13.4761 475.054 -48.4266C514.15 -119.13 583.557 -177.168 663.962 -185.082C743.715 -192.931 815.037 -142.251 873.708 -87.662C927.382 -37.722 953.186 29.1656 970.733 100.348C992.112 187.072 1043.2 291.338 983.518 357.791Z" fill="url(#paint1_linear_99_769)"/>
<defs>
<linearGradient id="paint0_linear_99_769" x1="-58.999" y1="-532.5" x2="778.001" y2="342.5" gradientUnits="userSpaceOnUse">
<stop stop-color="#FFE2FB" stop-opacity="0.2"/>
<stop offset="1" stop-color="#7D2B71"/>
</linearGradient>
<linearGradient id="paint1_linear_99_769" x1="1051.8" y1="235.046" x2="174.5" y2="-258" gradientUnits="userSpaceOnUse">
<stop stop-color="#FFE2FB" stop-opacity="0.2"/>
<stop offset="1" stop-color="#7D2B71"/>
</linearGradient>
</defs>
</svg>
