<svg width="572" height="574" viewBox="0 0 572 574" fill="none" xmlns="http://www.w3.org/2000/svg">
<path fill-rule="evenodd" clip-rule="evenodd" d="M62.3372 100.316C148.59 77.2634 208.88 183.233 285.844 228.483C353.509 268.266 457.988 270.255 479.681 345.691C501.311 420.902 416.348 479.161 377.465 547.078C342.32 608.466 328.836 685.165 266.35 718.319C194.981 756.187 105.141 766.888 33.469 729.597C-37.6225 692.607 -69.6804 611.197 -89.0061 533.424C-106.686 462.274 -91.7636 392.152 -67.5792 322.942C-38.1148 238.622 -23.9537 123.379 62.3372 100.316Z" fill="url(#paint0_linear_99_766)"/>
<path fill-rule="evenodd" clip-rule="evenodd" d="M8.46476 1.71287C97.6203 6.43337 122.225 125.844 181.445 192.657C233.511 251.398 332.265 285.565 329.593 364.013C326.93 442.227 228.125 471.39 170.163 523.973C117.773 571.501 81.254 640.283 11.5828 652.512C-67.9937 666.479 -156.745 648.904 -213.391 591.295C-269.578 534.153 -274.919 446.822 -269.273 366.882C-264.108 293.751 -228.253 231.668 -183.871 173.315C-129.8 102.222 -80.73 -3.00971 8.46476 1.71287Z" fill="url(#paint1_linear_99_766)"/>
<defs>
<linearGradient id="paint0_linear_99_766" x1="658.5" y1="506.5" x2="46.5" y2="-52" gradientUnits="userSpaceOnUse">
<stop stop-color="#FFE2FB" stop-opacity="0.2"/>
<stop offset="1" stop-color="#7D2B71"/>
</linearGradient>
<linearGradient id="paint1_linear_99_766" x1="-129.941" y1="25.6438" x2="213.5" y2="571.5" gradientUnits="userSpaceOnUse">
<stop stop-color="#FFE2FB" stop-opacity="0.2"/>
<stop offset="1" stop-color="#7D2B71"/>
</linearGradient>
</defs>
</svg>
