<svg width="389" height="389" viewBox="0 0 389 389" fill="none" xmlns="http://www.w3.org/2000/svg">
<g clip-path="url(#clip0_99_856)">
<rect width="389" height="389" fill="white"/>
<path d="M389 0H0V389H389V0Z" fill="#FEFEFE"/>
<path d="M40.5208 24.3125H24.3125V40.5208H40.5208V24.3125Z" fill="black"/>
<path d="M56.7292 24.3125H40.5208V40.5208H56.7292V24.3125Z" fill="black"/>
<path d="M72.9375 24.3125H56.7292V40.5208H72.9375V24.3125Z" fill="black"/>
<path d="M89.1458 24.3125H72.9375V40.5208H89.1458V24.3125Z" fill="black"/>
<path d="M105.354 24.3125H89.1458V40.5208H105.354V24.3125Z" fill="black"/>
<path d="M121.562 24.3125H105.354V40.5208H121.562V24.3125Z" fill="black"/>
<path d="M137.771 24.3125H121.562V40.5208H137.771V24.3125Z" fill="black"/>
<path d="M170.187 24.3125H153.979V40.5208H170.187V24.3125Z" fill="black"/>
<path d="M267.438 24.3125H251.229V40.5208H267.438V24.3125Z" fill="black"/>
<path d="M283.646 24.3125H267.438V40.5208H283.646V24.3125Z" fill="black"/>
<path d="M299.854 24.3125H283.646V40.5208H299.854V24.3125Z" fill="black"/>
<path d="M316.062 24.3125H299.854V40.5208H316.062V24.3125Z" fill="black"/>
<path d="M332.271 24.3125H316.062V40.5208H332.271V24.3125Z" fill="black"/>
<path d="M348.479 24.3125H332.271V40.5208H348.479V24.3125Z" fill="black"/>
<path d="M364.688 24.3125H348.479V40.5208H364.688V24.3125Z" fill="black"/>
<path d="M40.5208 40.5208H24.3125V56.7292H40.5208V40.5208Z" fill="black"/>
<path d="M137.771 40.5208H121.562V56.7292H137.771V40.5208Z" fill="black"/>
<path d="M186.396 40.5208H170.187L170.188 56.7292H186.396V40.5208Z" fill="black"/>
<path d="M202.604 40.5208H186.396V56.7292H202.604V40.5208Z" fill="black"/>
<path d="M218.812 40.5208H202.604V56.7292H218.812V40.5208Z" fill="black"/>
<path d="M235.021 40.5208H218.812V56.7292H235.021V40.5208Z" fill="black"/>
<path d="M267.438 40.5208H251.229V56.7292H267.438V40.5208Z" fill="black"/>
<path d="M364.688 40.5208H348.479V56.7292H364.688V40.5208Z" fill="black"/>
<path d="M40.5208 56.7292H24.3125V72.9375H40.5208V56.7292Z" fill="black"/>
<path d="M72.9375 56.7292H56.7292V72.9375H72.9375V56.7292Z" fill="black"/>
<path d="M89.1458 56.7292H72.9375V72.9375H89.1458V56.7292Z" fill="black"/>
<path d="M105.354 56.7292H89.1458V72.9375H105.354V56.7292Z" fill="black"/>
<path d="M137.771 56.7292H121.562V72.9375H137.771V56.7292Z" fill="black"/>
<path d="M186.396 56.7292H170.188V72.9375H186.396V56.7292Z" fill="black"/>
<path d="M218.812 56.7292H202.604L202.604 72.9375H218.812V56.7292Z" fill="black"/>
<path d="M267.438 56.7292H251.229V72.9375H267.438V56.7292Z" fill="black"/>
<path d="M299.854 56.7292H283.646V72.9375H299.854V56.7292Z" fill="black"/>
<path d="M316.062 56.7292H299.854V72.9375H316.062V56.7292Z" fill="black"/>
<path d="M332.271 56.7292H316.062V72.9375H332.271V56.7292Z" fill="black"/>
<path d="M364.688 56.7292H348.479V72.9375H364.688V56.7292Z" fill="black"/>
<path d="M40.5208 72.9375H24.3125V89.1458H40.5208V72.9375Z" fill="black"/>
<path d="M72.9375 72.9375H56.7292V89.1458H72.9375V72.9375Z" fill="black"/>
<path d="M89.1458 72.9375H72.9375V89.1458H89.1458V72.9375Z" fill="black"/>
<path d="M105.354 72.9375H89.1458V89.1458H105.354V72.9375Z" fill="black"/>
<path d="M137.771 72.9375H121.562V89.1458H137.771V72.9375Z" fill="black"/>
<path d="M186.396 72.9375H170.188V89.1458H186.396V72.9375Z" fill="black"/>
<path d="M218.812 72.9375H202.604V89.1458H218.812V72.9375Z" fill="black"/>
<path d="M235.021 72.9375H218.812V89.1458H235.021V72.9375Z" fill="black"/>
<path d="M267.438 72.9375H251.229V89.1458H267.438V72.9375Z" fill="black"/>
<path d="M299.854 72.9375H283.646V89.1458H299.854V72.9375Z" fill="black"/>
<path d="M316.062 72.9375H299.854V89.1458H316.062V72.9375Z" fill="black"/>
<path d="M332.271 72.9375H316.062V89.1458H332.271V72.9375Z" fill="black"/>
<path d="M364.688 72.9375H348.479V89.1458H364.688V72.9375Z" fill="black"/>
<path d="M40.5208 89.1458H24.3125V105.354H40.5208V89.1458Z" fill="black"/>
<path d="M72.9375 89.1458H56.7292V105.354H72.9375V89.1458Z" fill="black"/>
<path d="M89.1458 89.1458H72.9375V105.354H89.1458V89.1458Z" fill="black"/>
<path d="M105.354 89.1458H89.1458V105.354H105.354V89.1458Z" fill="black"/>
<path d="M137.771 89.1458H121.562V105.354H137.771V89.1458Z" fill="black"/>
<path d="M186.396 89.1458H170.188V105.354H186.396V89.1458Z" fill="black"/>
<path d="M202.604 89.1458H186.396V105.354H202.604L202.604 89.1458Z" fill="black"/>
<path d="M267.438 89.1458H251.229V105.354H267.438V89.1458Z" fill="black"/>
<path d="M299.854 89.1458H283.646V105.354H299.854V89.1458Z" fill="black"/>
<path d="M316.062 89.1458H299.854V105.354H316.062V89.1458Z" fill="black"/>
<path d="M332.271 89.1458H316.062V105.354H332.271V89.1458Z" fill="black"/>
<path d="M364.688 89.1458H348.479V105.354H364.688V89.1458Z" fill="black"/>
<path d="M40.5208 105.354H24.3125V121.562H40.5208V105.354Z" fill="black"/>
<path d="M137.771 105.354H121.562V121.562H137.771V105.354Z" fill="black"/>
<path d="M202.604 105.354H186.396L186.396 121.562H202.604V105.354Z" fill="black"/>
<path d="M235.021 105.354H218.812V121.562H235.021V105.354Z" fill="black"/>
<path d="M267.438 105.354H251.229V121.562H267.438V105.354Z" fill="black"/>
<path d="M364.688 105.354H348.479V121.562H364.688V105.354Z" fill="black"/>
<path d="M40.5208 121.562H24.3125V137.771H40.5208V121.562Z" fill="black"/>
<path d="M56.7292 121.562H40.5208V137.771H56.7292V121.562Z" fill="black"/>
<path d="M72.9375 121.562H56.7292V137.771H72.9375V121.562Z" fill="black"/>
<path d="M89.1458 121.562H72.9375V137.771H89.1458V121.562Z" fill="black"/>
<path d="M105.354 121.562H89.1458V137.771H105.354V121.562Z" fill="black"/>
<path d="M121.562 121.562H105.354V137.771H121.562V121.562Z" fill="black"/>
<path d="M137.771 121.562H121.562V137.771H137.771V121.562Z" fill="black"/>
<path d="M170.187 121.562H153.979V137.771H170.187V121.562Z" fill="black"/>
<path d="M202.604 121.562H186.396V137.771H202.604V121.562Z" fill="black"/>
<path d="M235.021 121.562H218.812V137.771H235.021V121.562Z" fill="black"/>
<path d="M267.438 121.562H251.229V137.771H267.438V121.562Z" fill="black"/>
<path d="M283.646 121.562H267.438V137.771H283.646V121.562Z" fill="black"/>
<path d="M299.854 121.562H283.646V137.771H299.854V121.562Z" fill="black"/>
<path d="M316.062 121.562H299.854V137.771H316.062V121.562Z" fill="black"/>
<path d="M332.271 121.562H316.062V137.771H332.271V121.562Z" fill="black"/>
<path d="M348.479 121.562H332.271V137.771H348.479V121.562Z" fill="black"/>
<path d="M364.688 121.562H348.479V137.771H364.688V121.562Z" fill="black"/>
<path d="M186.396 137.771H170.187L170.188 153.979H186.396L186.396 137.771Z" fill="black"/>
<path d="M56.7292 153.979H40.5208V170.187H56.7292V153.979Z" fill="black"/>
<path d="M72.9375 153.979H56.7292V170.187H72.9375V153.979Z" fill="black"/>
<path d="M89.1458 153.979H72.9375V170.187H89.1458V153.979Z" fill="black"/>
<path d="M137.771 153.979H121.562V170.187H137.771V153.979Z" fill="black"/>
<path d="M153.979 153.979H137.771V170.187H153.979V153.979Z" fill="black"/>
<path d="M170.188 153.979L153.979 153.979V170.187H170.187L170.188 153.979Z" fill="black"/>
<path d="M202.604 153.979L186.396 153.979L186.396 170.187H202.604V153.979Z" fill="black"/>
<path d="M218.812 153.979H202.604V170.187H218.812V153.979Z" fill="black"/>
<path d="M251.229 153.979H235.021V170.187H251.229V153.979Z" fill="black"/>
<path d="M364.688 153.979H348.479V170.187H364.688V153.979Z" fill="black"/>
<path d="M40.5208 170.187L24.3125 170.188V186.396H40.5208V170.187Z" fill="black"/>
<path d="M56.7292 170.187H40.5208V186.396H56.7292V170.187Z" fill="black"/>
<path d="M89.1458 170.187H72.9375V186.396H89.1458V170.187Z" fill="black"/>
<path d="M121.562 170.187L105.354 170.188V186.396H121.562V170.187Z" fill="black"/>
<path d="M218.812 170.187H202.604L202.604 186.396H218.812V170.187Z" fill="black"/>
<path d="M235.021 170.187H218.812V186.396H235.021V170.187Z" fill="black"/>
<path d="M251.229 170.187H235.021V186.396H251.229V170.187Z" fill="black"/>
<path d="M283.646 170.188H267.438V186.396H283.646V170.188Z" fill="black"/>
<path d="M299.854 170.188H283.646V186.396H299.854V170.188Z" fill="black"/>
<path d="M332.271 170.188H316.062V186.396H332.271V170.188Z" fill="black"/>
<path d="M56.7292 186.396H40.5208V202.604H56.7292V186.396Z" fill="black"/>
<path d="M72.9375 186.396H56.7292V202.604H72.9375V186.396Z" fill="black"/>
<path d="M105.354 186.396H89.1458V202.604H105.354V186.396Z" fill="black"/>
<path d="M121.562 186.396H105.354V202.604H121.562V186.396Z" fill="black"/>
<path d="M137.771 186.396L121.562 186.396V202.604H137.771V186.396Z" fill="black"/>
<path d="M153.979 186.396H137.771V202.604H153.979V186.396Z" fill="black"/>
<path d="M186.396 186.396H170.188V202.604H186.396V186.396Z" fill="black"/>
<path d="M218.812 186.396H202.604V202.604H218.812V186.396Z" fill="black"/>
<path d="M235.021 186.396H218.812V202.604H235.021V186.396Z" fill="black"/>
<path d="M251.229 186.396H235.021V202.604H251.229V186.396Z" fill="black"/>
<path d="M316.062 186.396H299.854V202.604H316.062V186.396Z" fill="black"/>
<path d="M332.271 186.396H316.062V202.604H332.271V186.396Z" fill="black"/>
<path d="M348.479 186.396L332.271 186.396V202.604H348.479V186.396Z" fill="black"/>
<path d="M364.688 186.396H348.479V202.604H364.688V186.396Z" fill="black"/>
<path d="M40.5208 202.604L24.3125 202.604V218.812H40.5208V202.604Z" fill="black"/>
<path d="M56.7292 202.604H40.5208V218.812H56.7292V202.604Z" fill="black"/>
<path d="M89.1458 202.604H72.9375V218.812H89.1458V202.604Z" fill="black"/>
<path d="M121.562 202.604H105.354V218.812H121.562V202.604Z" fill="black"/>
<path d="M170.188 202.604H153.979L153.979 218.812H170.187L170.188 202.604Z" fill="black"/>
<path d="M186.396 202.604H170.188L170.187 218.812H186.396V202.604Z" fill="black"/>
<path d="M218.812 202.604H202.604V218.812H218.812V202.604Z" fill="black"/>
<path d="M235.021 202.604H218.812V218.812H235.021V202.604Z" fill="black"/>
<path d="M267.438 202.604L251.229 202.604V218.812H267.438V202.604Z" fill="black"/>
<path d="M299.854 202.604L283.646 202.604V218.812H299.854V202.604Z" fill="black"/>
<path d="M332.271 202.604H316.062V218.812H332.271V202.604Z" fill="black"/>
<path d="M348.479 202.604H332.271V218.812H348.479V202.604Z" fill="black"/>
<path d="M40.5208 218.812H24.3125V235.021H40.5208V218.812Z" fill="black"/>
<path d="M56.7292 218.812H40.5208V235.021H56.7292V218.812Z" fill="black"/>
<path d="M72.9375 218.812H56.7292V235.021H72.9375V218.812Z" fill="black"/>
<path d="M105.354 218.812H89.1458V235.021H105.354V218.812Z" fill="black"/>
<path d="M137.771 218.812H121.562V235.021H137.771V218.812Z" fill="black"/>
<path d="M186.396 218.812H170.187L170.188 235.021H186.396V218.812Z" fill="black"/>
<path d="M202.604 218.812H186.396V235.021H202.604L202.604 218.812Z" fill="black"/>
<path d="M218.812 218.812H202.604L202.604 235.021H218.812V218.812Z" fill="black"/>
<path d="M235.021 218.812H218.812V235.021H235.021V218.812Z" fill="black"/>
<path d="M251.229 218.812H235.021V235.021H251.229V218.812Z" fill="black"/>
<path d="M316.062 218.812H299.854V235.021H316.062V218.812Z" fill="black"/>
<path d="M332.271 218.812H316.062V235.021H332.271V218.812Z" fill="black"/>
<path d="M348.479 218.812H332.271V235.021H348.479V218.812Z" fill="black"/>
<path d="M364.688 218.812H348.479V235.021H364.688V218.812Z" fill="black"/>
<path d="M170.188 235.021H153.979V251.229H170.187L170.188 235.021Z" fill="black"/>
<path d="M186.396 235.021H170.188L170.187 251.229H186.396V235.021Z" fill="black"/>
<path d="M202.604 235.021H186.396V251.229H202.604V235.021Z" fill="black"/>
<path d="M218.812 235.021H202.604V251.229H218.812V235.021Z" fill="black"/>
<path d="M235.021 235.021H218.812V251.229H235.021V235.021Z" fill="black"/>
<path d="M267.438 235.021H251.229V251.229H267.438V235.021Z" fill="black"/>
<path d="M283.646 235.021H267.438V251.229H283.646V235.021Z" fill="black"/>
<path d="M316.062 235.021H299.854V251.229H316.062V235.021Z" fill="black"/>
<path d="M348.479 235.021H332.271V251.229H348.479V235.021Z" fill="black"/>
<path d="M40.5208 251.229H24.3125V267.438H40.5208V251.229Z" fill="black"/>
<path d="M56.7292 251.229H40.5208V267.438H56.7292V251.229Z" fill="black"/>
<path d="M72.9375 251.229H56.7292V267.438H72.9375V251.229Z" fill="black"/>
<path d="M89.1458 251.229H72.9375V267.438H89.1458V251.229Z" fill="black"/>
<path d="M105.354 251.229H89.1458V267.438H105.354V251.229Z" fill="black"/>
<path d="M121.562 251.229H105.354V267.438H121.562V251.229Z" fill="black"/>
<path d="M137.771 251.229H121.562V267.438H137.771V251.229Z" fill="black"/>
<path d="M170.187 251.229H153.979V267.438H170.187V251.229Z" fill="black"/>
<path d="M235.021 251.229H218.812V267.438H235.021V251.229Z" fill="black"/>
<path d="M283.646 251.229H267.438V267.438H283.646V251.229Z" fill="black"/>
<path d="M316.062 251.229H299.854V267.438H316.062V251.229Z" fill="black"/>
<path d="M332.271 251.229H316.062V267.438H332.271V251.229Z" fill="black"/>
<path d="M40.5208 267.438H24.3125V283.646H40.5208V267.438Z" fill="black"/>
<path d="M137.771 267.438H121.562V283.646H137.771V267.438Z" fill="black"/>
<path d="M218.812 267.438H202.604V283.646H218.812V267.438Z" fill="black"/>
<path d="M235.021 267.438H218.812V283.646H235.021V267.438Z" fill="black"/>
<path d="M283.646 267.438H267.438V283.646H283.646V267.438Z" fill="black"/>
<path d="M348.479 267.438H332.271V283.646H348.479V267.438Z" fill="black"/>
<path d="M364.688 267.438H348.479V283.646H364.688V267.438Z" fill="black"/>
<path d="M40.5208 283.646H24.3125V299.854H40.5208V283.646Z" fill="black"/>
<path d="M72.9375 283.646H56.7292V299.854H72.9375V283.646Z" fill="black"/>
<path d="M89.1458 283.646H72.9375V299.854H89.1458V283.646Z" fill="black"/>
<path d="M105.354 283.646H89.1458V299.854H105.354V283.646Z" fill="black"/>
<path d="M137.771 283.646H121.562V299.854H137.771V283.646Z" fill="black"/>
<path d="M186.396 283.646H170.188V299.854H186.396V283.646Z" fill="black"/>
<path d="M235.021 283.646H218.812V299.854H235.021V283.646Z" fill="black"/>
<path d="M283.646 283.646H267.438V299.854H283.646V283.646Z" fill="black"/>
<path d="M299.854 283.646H283.646V299.854H299.854V283.646Z" fill="black"/>
<path d="M332.271 283.646H316.062V299.854H332.271V283.646Z" fill="black"/>
<path d="M40.5208 299.854H24.3125V316.062H40.5208V299.854Z" fill="black"/>
<path d="M72.9375 299.854H56.7292V316.062H72.9375V299.854Z" fill="black"/>
<path d="M89.1458 299.854H72.9375V316.062H89.1458V299.854Z" fill="black"/>
<path d="M105.354 299.854H89.1458V316.062H105.354V299.854Z" fill="black"/>
<path d="M137.771 299.854H121.562V316.062H137.771V299.854Z" fill="black"/>
<path d="M170.188 299.854H153.979V316.062H170.187L170.188 299.854Z" fill="black"/>
<path d="M218.812 299.854H202.604V316.062H218.812V299.854Z" fill="black"/>
<path d="M235.021 299.854H218.812V316.062H235.021V299.854Z" fill="black"/>
<path d="M267.438 299.854H251.229V316.062H267.438V299.854Z" fill="black"/>
<path d="M283.646 299.854H267.438V316.062H283.646V299.854Z" fill="black"/>
<path d="M316.062 299.854H299.854V316.062H316.062V299.854Z" fill="black"/>
<path d="M348.479 299.854H332.271V316.062H348.479V299.854Z" fill="black"/>
<path d="M40.5208 316.062H24.3125V332.271H40.5208V316.062Z" fill="black"/>
<path d="M72.9375 316.062H56.7292V332.271H72.9375V316.062Z" fill="black"/>
<path d="M89.1458 316.062H72.9375V332.271H89.1458V316.062Z" fill="black"/>
<path d="M105.354 316.062H89.1458V332.271H105.354V316.062Z" fill="black"/>
<path d="M137.771 316.062H121.562V332.271H137.771V316.062Z" fill="black"/>
<path d="M170.187 316.062H153.979V332.271H170.187V316.062Z" fill="black"/>
<path d="M186.396 316.062H170.187V332.271H186.396V316.062Z" fill="black"/>
<path d="M218.812 316.062H202.604V332.271H218.812V316.062Z" fill="black"/>
<path d="M235.021 316.062H218.812V332.271H235.021V316.062Z" fill="black"/>
<path d="M251.229 316.062H235.021V332.271H251.229V316.062Z" fill="black"/>
<path d="M267.438 316.062H251.229V332.271H267.438V316.062Z" fill="black"/>
<path d="M283.646 316.062H267.438V332.271H283.646V316.062Z" fill="black"/>
<path d="M299.854 316.062H283.646V332.271H299.854V316.062Z" fill="black"/>
<path d="M332.271 316.062H316.062V332.271H332.271V316.062Z" fill="black"/>
<path d="M348.479 316.062H332.271V332.271H348.479V316.062Z" fill="black"/>
<path d="M364.688 316.062H348.479V332.271H364.688V316.062Z" fill="black"/>
<path d="M40.5208 332.271H24.3125V348.479H40.5208V332.271Z" fill="black"/>
<path d="M137.771 332.271H121.562V348.479H137.771V332.271Z" fill="black"/>
<path d="M170.187 332.271H153.979V348.479H170.187V332.271Z" fill="black"/>
<path d="M186.396 332.271H170.187V348.479H186.396V332.271Z" fill="black"/>
<path d="M202.604 332.271H186.396V348.479H202.604L202.604 332.271Z" fill="black"/>
<path d="M267.438 332.271H251.229V348.479H267.438V332.271Z" fill="black"/>
<path d="M283.646 332.271H267.438V348.479H283.646V332.271Z" fill="black"/>
<path d="M332.271 332.271H316.062V348.479H332.271V332.271Z" fill="black"/>
<path d="M364.688 332.271H348.479V348.479H364.688V332.271Z" fill="black"/>
<path d="M40.5208 348.479H24.3125V364.688H40.5208V348.479Z" fill="black"/>
<path d="M56.7292 348.479H40.5208V364.688H56.7292V348.479Z" fill="black"/>
<path d="M72.9375 348.479H56.7292V364.688H72.9375V348.479Z" fill="black"/>
<path d="M89.1458 348.479H72.9375V364.688H89.1458V348.479Z" fill="black"/>
<path d="M105.354 348.479H89.1458V364.688H105.354V348.479Z" fill="black"/>
<path d="M121.562 348.479H105.354V364.688H121.562V348.479Z" fill="black"/>
<path d="M137.771 348.479H121.562V364.688H137.771V348.479Z" fill="black"/>
<path d="M186.396 348.479H170.187L170.188 364.688H186.396V348.479Z" fill="black"/>
<path d="M235.021 348.479H218.812V364.688H235.021V348.479Z" fill="black"/>
<path d="M299.854 348.479H283.646V364.688H299.854V348.479Z" fill="black"/>
<path d="M332.271 348.479H316.062V364.688H332.271V348.479Z" fill="black"/>
</g>
<defs>
<clipPath id="clip0_99_856">
<rect width="389" height="389" fill="white"/>
</clipPath>
</defs>
</svg>
